<svg width="256" height="256" viewBox="0 0 256 256" fill="none" xmlns="http://www.w3.org/2000/svg">
<rect width="256" height="256" rx="24" fill="url(#paint0_linear_711_3316)"/>
<g clip-path="url(#clip0_711_3316)">
<path fill-rule="evenodd" clip-rule="evenodd" d="M186.811 77.5286C190.551 80.6196 191.078 86.1574 187.986 89.8977L117.35 175.376L117.328 175.402C115.722 177.331 113.705 178.878 111.425 179.93C109.146 180.982 106.66 181.513 104.15 181.484C101.598 181.452 99.0789 180.843 96.7964 179.701C94.5216 178.564 92.5331 176.928 90.979 174.915L68.8506 146.464C65.8716 142.634 66.5616 137.114 70.3917 134.135C74.2218 131.156 79.7417 131.846 82.7207 135.676L104.365 163.505L174.441 78.7045C177.532 74.9641 183.071 74.4377 186.811 77.5286Z" fill="white"/>
</g>
<defs>
<linearGradient id="paint0_linear_711_3316" x1="-13" y1="-20.5" x2="290.5" y2="285" gradientUnits="userSpaceOnUse">
<stop stop-color="#020202"/>
<stop offset="1" stop-color="#1A1A1A"/>
</linearGradient>
<clipPath id="clip0_711_3316">
<rect width="123" height="123" fill="white" transform="translate(67 67)"/>
</clipPath>
</defs>
</svg>
